<?xml version="1.0" standalone="no"?>
<!DOCTYPE svg PUBLIC "-//W3C//DTD SVG 20010904//EN"
 "http://www.w3.org/TR/2001/REC-SVG-20010904/DTD/svg10.dtd">
<svg version="1.0" xmlns="http://www.w3.org/2000/svg"
 width="260.000000pt" height="260.000000pt" viewBox="0 0 260.000000 260.000000"
 preserveAspectRatio="xMidYMid meet">

<g transform="translate(0.000000,260.000000) scale(0.100000,-0.100000)"
fill="#000000" stroke="none">
<path d="M0 1846 l0 -755 33 -4 32 -4 -32 -1 -33 -2 0 -80 0 -80 50 0 c33 0
50 4 51 13 5 46 -5 143 -14 149 -7 5 -8 8 -1 8 29 0 34 -27 34 -187 l0 -162
-58 -3 -57 -3 -3 -368 -2 -367 882 2 c486 2 846 4 801 6 -57 2 -83 7 -86 17
-3 7 -2 42 3 77 5 34 10 91 10 126 l0 62 94 0 94 0 169 -119 c92 -65 181 -130
196 -145 28 -26 30 -26 180 -26 l152 0 -128 83 c-268 171 -674 440 -714 474
-25 20 -43 43 -43 55 0 20 2 20 248 14 136 -4 269 -9 295 -12 l48 -6 -3 -140
c-2 -77 -6 -142 -10 -144 -4 -3 -4 -12 -1 -21 6 -14 -1 -15 -48 -9 -49 6 -52
5 -35 -9 11 -8 34 -15 52 -15 26 0 33 -5 36 -22 5 -32 28 -35 28 -4 0 30 6 30
146 20 74 -6 82 -9 83 -28 1 -12 3 -50 6 -86 2 -36 4 -72 5 -81 0 -22 42 -39
95 -39 l45 0 0 125 0 125 -92 1 c-108 2 -305 15 -268 18 l25 2 -22 11 c-22 11
-23 16 -23 155 l0 143 98 0 c90 0 137 -10 115 -23 -11 -7 -4 -87 7 -87 5 0 5
-12 1 -27 -4 -16 -6 -47 -3 -70 l4 -43 48 0 c26 0 62 -3 79 -6 l31 -6 0 52 c0
53 -26 160 -38 160 -4 0 -13 9 -20 20 -12 19 -11 20 15 17 21 -3 29 -10 34
-33 6 -26 7 -25 8 12 l1 41 -67 6 c-38 4 -113 7 -168 7 -75 0 -106 4 -123 16
-25 17 -29 44 -7 44 13 0 15 20 15 121 0 106 2 120 16 115 9 -3 24 -6 35 -6
10 0 19 -7 19 -15 0 -12 13 -15 55 -15 30 0 55 -4 55 -8 0 -13 81 -7 89 7 7
11 9 11 13 1 5 -16 58 -5 58 11 0 6 -6 7 -12 2 -7 -4 -5 5 5 20 21 33 23 97 2
97 -9 0 -12 6 -8 16 5 13 7 13 14 2 14 -21 11 61 -3 99 -9 26 -10 36 -1 41 7
5 11 34 11 74 l-1 68 -175 2 c-130 2 -176 6 -180 16 -3 9 34 11 175 6 l178 -7
0 62 c0 58 -6 73 -20 51 -4 -6 -11 -8 -16 -4 -12 7 8 34 26 34 10 0 13 33 13
143 0 106 -2 134 -9 110 -5 -18 -14 -33 -20 -33 -6 0 -7 5 -4 10 3 6 2 10 -4
10 -18 0 -21 -18 -6 -34 14 -14 1 -15 -132 -12 -192 5 -183 4 -177 20 3 8 15
11 30 8 19 -3 24 0 24 17 0 16 -6 21 -26 21 l-25 0 3 127 3 127 25 1 c14 1 91
2 173 3 116 2 147 5 147 15 0 15 -122 27 -272 27 l-78 0 0 146 c0 81 5 154 10
165 10 18 23 19 175 19 158 0 165 1 165 20 0 19 -7 20 -171 20 -157 0 -170 1
-167 18 3 15 20 17 171 20 l167 2 0 30 0 30 -170 0 -170 0 -2 48 -1 47 -6 -45
-6 -45 -320 0 -320 0 -3 43 c-4 56 -22 54 -22 -3 l0 -45 -94 0 c-118 0 -186
24 -186 65 l0 25 -115 0 -115 0 6 -39 c7 -45 2 -50 -48 -44 -37 5 -38 7 -38
44 l0 39 -495 0 -495 0 0 -754z m1074 608 c9 -24 -2 -34 -39 -34 -36 0 -50 12
-41 35 8 21 72 20 80 -1z m480 -4 c29 -11 34 -28 12 -36 -15 -6 -65 24 -66 39
0 10 24 9 54 -3z m661 -2 c14 -6 25 -17 25 -25 0 -11 -57 -13 -307 -13 -170 0
-314 4 -322 9 -12 8 -12 12 -2 25 12 14 51 16 297 16 193 0 291 -4 309 -12z
m-1156 -160 c0 -48 -4 -90 -10 -93 -5 -4 -9 -35 -9 -71 0 -56 -2 -64 -18 -64
-17 0 -20 12 -25 98 -14 197 -9 224 39 220 22 -2 23 -6 23 -90z m1179 -28 c2
-52 0 -123 -3 -157 l-6 -62 -300 0 c-165 0 -307 3 -315 6 -11 4 -14 32 -14
147 0 77 4 147 8 153 9 14 394 23 547 13 l80 -5 3 -95z m-658 -55 l0 -155 -24
0 c-19 0 -23 4 -19 20 3 11 0 26 -6 34 -13 15 -4 66 24 145 8 24 15 59 15 77
0 19 2 34 5 34 3 0 5 -70 5 -155z m-516 -192 c2 -10 7 -43 11 -74 6 -55 5 -56
-29 -82 -19 -15 -37 -27 -40 -27 -8 0 -7 185 1 193 13 14 52 7 57 -10z m502
-3 c11 0 14 -23 14 -117 0 -113 0 -116 -19 -99 -10 9 -42 51 -71 93 -44 64
-49 75 -30 70 17 -4 26 2 42 29 13 23 26 33 35 30 8 -3 21 -6 29 -6z m338 -9
c8 -12 56 -20 56 -10 0 5 25 9 55 9 50 0 55 -2 56 -22 1 -22 1 -22 9 2 7 21 8
22 9 5 1 -15 3 -17 10 -6 7 11 11 10 20 -5 11 -18 12 -18 27 4 21 29 34 28 34
-2 0 -20 4 -22 27 -18 25 5 26 4 20 -34 -4 -21 -7 -72 -7 -112 l0 -72 -77 3
c-52 2 -82 -1 -90 -9 -15 -15 -17 -28 -3 -19 6 3 10 2 10 -4 0 -6 31 -8 80 -5
68 4 80 2 80 -11 0 -14 -26 -15 -205 -14 -162 1 -206 4 -216 15 -15 18 -34 18
-62 -1 -21 -13 -27 -12 -72 12 -28 14 -53 31 -57 37 -10 14 -10 250 -1 259 10
10 291 8 297 -2z m316 -16 c0 -9 -6 -12 -15 -9 -8 4 -12 10 -9 15 8 14 24 10
24 -6z m-275 -335 c4 -6 15 -6 32 1 32 12 79 3 87 -16 3 -9 25 -15 58 -18 29
-2 -4 -4 -73 -5 -103 -2 -126 -5 -126 -17 0 -19 24 -27 47 -15 23 12 40 -12
40 -55 0 -25 -1 -26 -57 -23 -42 2 -58 7 -58 17 0 9 12 14 37 15 20 1 36 -1
35 -4 -1 -3 3 -6 8 -7 6 -2 10 5 10 15 0 14 -9 17 -45 16 -25 -1 -48 4 -52 10
-5 6 -8 0 -9 -14 l-1 -25 -8 25 -8 25 -1 -27 c-1 -16 -3 -28 -5 -28 -2 0 -11
-3 -19 -6 -11 -4 -19 6 -27 33 -7 21 -19 48 -26 61 l-14 22 70 0 c56 0 70 3
70 15 0 17 25 21 35 5z m205 -10 c0 -5 -11 -10 -25 -10 -14 0 -25 5 -25 10 0
6 11 10 25 10 14 0 25 -4 25 -10z m250 -2 c0 -5 9 -3 20 4 22 14 35 6 26 -17
-4 -11 -12 -14 -26 -10 -16 5 -20 2 -20 -15 0 -13 8 -24 20 -27 23 -6 27 -41
5 -49 -8 -3 -22 2 -31 11 -12 12 -26 15 -48 11 -96 -18 -106 -19 -106 -5 1 33
17 41 81 37 58 -3 64 -1 64 17 0 18 -8 21 -70 25 -43 3 -65 8 -57 13 7 5 19 7
26 4 7 -3 19 -1 27 4 17 11 89 8 89 -3z m-189 -10 c0 -7 2 -24 3 -38 2 -14 -1
-39 -5 -55 -8 -28 -12 -30 -54 -32 -28 0 -45 4 -45 11 0 7 -3 6 -9 -2 -6 -10
-13 -8 -32 7 -22 19 -17 27 14 22 4 0 7 8 7 18 0 14 5 18 20 14 11 -3 20 0 20
6 0 9 5 9 20 1 31 -17 24 -30 -17 -30 -45 0 -37 -10 17 -20 39 -7 40 -7 40 21
0 17 -5 29 -12 29 -10 0 -10 2 0 9 7 4 14 18 15 29 1 23 16 31 18 10z m346 6
c-3 -3 -12 -4 -19 -1 -8 3 -5 6 6 6 11 1 17 -2 13 -5z m-62 -34 c4 -6 -5 -10
-20 -10 -15 0 -24 4 -20 10 3 6 12 10 20 10 8 0 17 -4 20 -10z m-455 -25 c0
-9 -6 -12 -15 -9 -8 4 -12 10 -9 15 8 14 24 10 24 -6z m40 0 c0 -8 -4 -15 -9
-15 -13 0 -22 16 -14 24 11 11 23 6 23 -9z m261 -92 c1 -17 2 -17 6 0 5 19 30
17 26 -2 -2 -6 4 -11 13 -11 13 0 14 -3 5 -13 -6 -8 -8 -17 -4 -20 3 -4 1 -13
-5 -20 -7 -8 -9 -17 -5 -20 3 -4 -26 -7 -65 -7 l-72 0 0 49 c0 54 4 58 68 60
24 1 32 -3 33 -16z m89 7 c-12 -8 -13 -11 -1 -19 7 -5 9 -11 4 -14 -11 -7 -44
28 -36 37 4 3 16 6 27 6 17 0 18 -2 6 -10z m-229 -11 c11 -5 14 -18 11 -44
l-4 -35 -187 2 -186 3 -3 37 c-3 31 0 37 20 41 39 8 332 4 349 -4z m-281 -99
c0 -5 -7 -7 -15 -4 -8 4 -15 8 -15 10 0 2 7 4 15 4 8 0 15 -4 15 -10z m213
-15 c-4 -12 4 -15 36 -15 31 0 41 -4 41 -16 0 -15 -10 -16 -82 -11 -46 4 -131
7 -190 7 -65 0 -108 4 -108 10 0 6 50 10 130 10 106 0 130 3 130 14 0 8 8 16
18 19 24 5 32 -1 25 -18z m217 5 c0 -5 -11 -10 -25 -10 -14 0 -25 5 -25 10 0
6 11 10 25 10 14 0 25 -4 25 -10z m-247 -70 c102 0 107 -1 107 -21 0 -20 -3
-21 -187 -18 -104 2 -193 5 -199 7 -7 2 -9 13 -6 24 5 19 10 20 91 14 47 -3
134 -6 194 -6z m227 -4 c0 -2 2 -10 5 -18 4 -10 -6 -14 -37 -14 -39 0 -57 9
-58 29 0 4 20 7 45 7 25 0 45 -2 45 -4z m-290 -50 c0 -3 -4 -8 -10 -11 -5 -3
-10 -1 -10 4 0 6 5 11 10 11 6 0 10 -2 10 -4z m-113 -42 c-3 -3 -12 -4 -19 -1
-8 3 -5 6 6 6 11 1 17 -2 13 -5z m201 -20 c112 -9 104 -28 -14 -31 -49 -2 -95
-5 -101 -8 -8 -2 -13 4 -13 16 0 11 -4 17 -10 14 -5 -3 -10 -15 -10 -25 0 -12
-10 -21 -30 -25 -35 -8 -65 7 -65 32 0 13 -8 18 -27 18 -15 1 -30 4 -34 8 -9
8 196 9 304 1z m152 -8 c0 -2 -7 -9 -15 -16 -12 -10 -15 -10 -15 4 0 9 7 16
15 16 8 0 15 -2 15 -4z m155 -16 c3 -5 1 -10 -4 -10 -6 0 -11 5 -11 10 0 6 2
10 4 10 3 0 8 -4 11 -10z m-147 -17 c-4 -19 -38 -31 -38 -14 0 6 7 11 16 11 8
0 12 5 9 10 -3 6 -1 10 5 10 6 0 10 -8 8 -17z m-78 -18 c0 -12 -16 -15 -85
-15 -48 0 -85 4 -85 10 0 5 -7 6 -17 3 -11 -4 -14 -3 -9 5 5 8 40 12 102 12
77 0 94 -3 94 -15z m-252 -73 c23 1 45 -2 49 -5 3 -4 -50 -6 -118 -5 -96 1
-110 2 -62 7 34 3 65 9 69 14 4 4 10 3 14 -3 3 -5 25 -9 48 -8z m452 -22 c24
-8 24 -8 -7 -9 -17 -1 -35 4 -38 9 -7 11 9 11 45 0z m77 -6 c-3 -3 -12 -4 -19
-1 -8 3 -5 6 6 6 11 1 17 -2 13 -5z m-449 -41 c-21 -2 -57 -2 -80 0 -24 2 -7
4 37 4 44 0 63 -2 43 -4z m140 -29 c26 -7 28 -27 7 -68 -20 -39 -20 -100 0
-92 23 8 20 -63 -2 -80 -17 -13 -17 -13 0 -14 12 0 17 -8 17 -31 l0 -31 -272
7 c-150 4 -276 9 -281 12 -9 5 5 32 51 100 30 46 37 51 55 42 15 -9 18 -8 12
2 -6 9 -3 11 8 6 19 -7 117 27 129 45 5 9 8 5 8 -10 0 -13 4 -20 10 -17 6 3
10 20 10 36 0 17 6 36 13 43 6 8 19 23 27 35 13 19 24 21 100 21 47 0 95 -3
108 -6z m207 -34 c-3 -5 -11 -10 -16 -10 -6 0 -7 5 -4 10 3 6 11 10 16 10 6 0
7 -4 4 -10z m-478 -42 c-3 -8 -6 -5 -6 6 -1 11 2 17 5 13 3 -3 4 -12 1 -19z
m333 -74 c0 -47 -4 -83 -8 -80 -5 3 -8 22 -6 43 1 21 2 57 3 81 2 78 11 43 11
-44z m-1285 -185 c8 -47 6 -50 -22 -43 -29 8 -37 32 -18 60 22 34 32 30 40
-17z m615 -209 c0 -90 -2 -91 -94 -89 -96 2 -121 12 -51 20 l50 6 -48 1 -49 2
6 48 c3 26 8 75 12 109 l6 63 84 -58 83 -57 1 -45z m128 -47 l27 -22 -40 -2
c-37 -2 -35 -3 15 -9 l55 -7 -65 -1 c-56 -2 -67 1 -78 19 -8 12 -11 32 -7 50
l7 29 29 -17 c16 -10 42 -28 57 -40z m-138 -209 l0 -147 -61 7 c-34 3 -86 6
-115 6 -48 0 -54 2 -54 20 0 12 7 34 15 50 8 16 17 64 19 108 2 44 6 84 10 91
5 7 41 11 97 11 l89 0 0 -146z"/>
<path d="M2065 1900 c-3 -5 1 -10 10 -10 9 0 13 5 10 10 -3 6 -8 10 -10 10 -2
0 -7 -4 -10 -10z"/>
<path d="M2110 1900 c0 -4 7 -11 16 -14 8 -3 13 -2 10 3 -4 5 12 7 36 4 26 -4
39 -2 35 4 -7 12 -97 15 -97 3z"/>
<path d="M1940 1855 c0 -9 9 -15 21 -15 18 0 19 2 5 15 -8 8 -17 15 -20 15 -3
0 -6 -7 -6 -15z"/>
<path d="M2052 1855 c-11 -12 -10 -15 3 -15 8 0 15 7 15 15 0 18 -2 18 -18 0z"/>
<path d="M2110 1854 c0 -9 5 -14 12 -12 18 6 21 28 4 28 -9 0 -16 -7 -16 -16z"/>
<path d="M2175 1860 c-10 -17 12 -37 25 -24 8 8 6 15 -4 23 -10 9 -16 9 -21 1z"/>
<path d="M1913 1776 c2 -6 12 -11 22 -11 10 0 20 5 22 11 2 7 -7 12 -22 12
-15 0 -24 -5 -22 -12z"/>
<path d="M2000 1780 c-12 -8 -12 -10 3 -16 21 -8 35 2 21 16 -5 5 -15 6 -24 0z"/>
<path d="M2105 1780 c-3 -5 3 -10 14 -10 12 0 21 5 21 10 0 6 -6 10 -14 10 -8
0 -18 -4 -21 -10z"/>
<path d="M1915 1740 c3 -5 1 -18 -4 -29 -10 -17 -8 -19 17 -12 17 5 28 15 30
29 3 18 -2 22 -23 22 -15 0 -23 -4 -20 -10z"/>
<path d="M1986 1741 c-10 -16 5 -41 25 -41 14 0 19 7 19 25 0 18 -5 25 -19 25
-11 0 -22 -4 -25 -9z"/>
<path d="M2008 1633 c7 -3 16 -2 19 1 4 3 -2 6 -13 5 -11 0 -14 -3 -6 -6z"/>
<path d="M2288 1473 c6 -2 18 -2 25 0 6 3 1 5 -13 5 -14 0 -19 -2 -12 -5z"/>
<path d="M2050 870 c0 -16 5 -30 10 -30 6 0 10 14 10 30 0 17 -4 30 -10 30 -5
0 -10 -13 -10 -30z"/>
<path d="M2418 1783 c-48 -5 -50 -23 -2 -23 21 0 33 -4 29 -10 -3 -5 -15 -10
-26 -10 -12 0 -19 -7 -19 -20 0 -15 7 -20 24 -20 14 0 28 -4 31 -10 3 -5 17
-10 31 -10 17 0 24 5 24 20 0 11 5 20 10 20 6 0 10 5 10 10 0 6 -16 10 -35 10
-19 0 -35 5 -35 10 0 6 9 10 21 10 26 0 20 25 -7 26 -10 1 -36 -1 -56 -3z"/>
<path d="M2295 1770 c3 -5 10 -10 16 -10 5 0 9 5 9 10 0 6 -7 10 -16 10 -8 0
-12 -4 -9 -10z"/>
<path d="M0 830 l0 -81 53 3 52 3 0 75 0 75 -52 3 -53 3 0 -81z"/>
<path d="M2570 781 c0 -21 -3 -53 -6 -70 -6 -27 -4 -31 15 -31 17 0 21 6 21
29 0 17 -4 32 -8 35 -10 6 -9 36 1 52 3 6 4 14 0 18 -15 15 -23 3 -23 -33z"/>
<path d="M2277 780 c6 -24 43 -48 43 -28 -1 17 -25 48 -38 48 -5 0 -8 -9 -5
-20z"/>
<path d="M2300 720 c0 -5 5 -10 11 -10 5 0 7 5 4 10 -3 6 -8 10 -11 10 -2 0
-4 -4 -4 -10z"/>
<path d="M2078 313 c18 -2 45 -2 60 0 15 2 0 4 -33 4 -33 0 -45 -2 -27 -4z"/>
<path d="M2408 303 c7 -3 16 -2 19 1 4 3 -2 6 -13 5 -11 0 -14 -3 -6 -6z"/>
</g>
</svg>
